<?xml version="1.0" encoding="utf-8"?>
<!-- Generator: Adobe Illustrator 17.0.1, SVG Export Plug-In . SVG Version: 6.00 Build 0)  -->
<!DOCTYPE svg PUBLIC "-//W3C//DTD SVG 1.1//EN" "http://www.w3.org/Graphics/SVG/1.1/DTD/svg11.dtd">
<svg version="1.1" id="Layer_1" xmlns="http://www.w3.org/2000/svg" xmlns:xlink="http://www.w3.org/1999/xlink" x="0px" y="0px"
	 width="55.484px" height="29.389px" viewBox="0 0 55.484 29.389" enable-background="new 0 0 55.484 29.389" xml:space="preserve">
<path fill="#DC1B53" d="M20.234,29.353c-4.819,0.004-9.639-0.082-14.455,0.032c-3.9,0.092-5.876-1.395-5.771-5.542
	C0.159,17.865,0.156,11.878,0.005,5.9C-0.096,1.938,1.536,0,5.535,0.01C15.504,0.036,25.474,0.036,35.443,0
	c3.273-0.012,4.937,1.426,4.918,4.787c-0.037,6.48-0.031,12.96,0.009,19.44c0.022,3.529-1.66,5.172-5.182,5.135
	C30.204,29.309,25.219,29.349,20.234,29.353z"/>
<path fill="#DC1B53" d="M55.454,14.972c0,3.475,0.027,6.95-0.009,10.425c-0.027,2.569-0.916,3.641-3.705,2.49
	c-8.572-3.537-11.527-8.794-9.774-17.814c0.535-2.751,9.099-9.33,11.715-9.02c1.919,0.229,1.749,1.733,1.77,2.998
	c0.06,3.64,0.021,7.281,0.021,10.921C55.466,14.972,55.46,14.972,55.454,14.972z"/>
</svg>
