<?xml version="1.0" encoding="utf-8"?>
<!-- Generator: Adobe Illustrator 17.0.1, SVG Export Plug-In . SVG Version: 6.00 Build 0)  -->
<!DOCTYPE svg PUBLIC "-//W3C//DTD SVG 1.1//EN" "http://www.w3.org/Graphics/SVG/1.1/DTD/svg11.dtd">
<svg version="1.1" id="Layer_1" xmlns="http://www.w3.org/2000/svg" xmlns:xlink="http://www.w3.org/1999/xlink" x="0px" y="0px"
	 width="128px" height="128px" viewBox="0 0 128 128" enable-background="new 0 0 128 128" xml:space="preserve">
<path fill="#06A94E" d="M2.017,45.382C2.046,21.992,20.441,3.823,44.042,3.871c23.22,0.047,42.023,18.97,41.768,42.035
	c-0.256,23.21-18.985,41.61-42.302,41.556C20.155,87.409,1.988,68.984,2.017,45.382z M43.685,70.265
	c13.771,0.011,24.8-10.858,24.898-24.535c0.095-13.446-11.212-24.824-24.704-24.862c-13.574-0.037-24.809,11.111-24.86,24.671
	C18.963,59.18,30.012,70.254,43.685,70.265z"/>
<path fill="#06A94E" d="M123.017,108.567c-3.984,4.079-8.471,8.671-13.151,13.462c-0.999-0.921-1.984-1.767-2.901-2.682
	c-12.11-12.091-24.209-24.192-36.089-36.069c4.836-4.757,9.404-9.25,13.726-13.501C97.01,82.305,109.956,95.378,123.017,108.567z"/>
<path fill="#06A94E" d="M39.236,50.962c-4.77,0-8.704,0-12.964,0c0-3.408,0-6.466,0-10.134c4.026,0,8.082,0,12.577,0
	c0-4.667,0-8.755,0-13.126c3.547,0,6.627,0,10.258,0c0,4.296,0,8.366,0,12.966c4.605,0,8.688,0,13.04,0c0,3.623,0,6.703,0,10.257
	c-4.334,0-8.413,0-12.866,0c0,4.396,0,8.335,0,12.707c-3.427,0-6.486,0-10.045,0C39.236,59.812,39.236,55.745,39.236,50.962z"/>
</svg>
